{"title":"Knight.And.Day.2010.CAM.MP4.FEEL-FREE","uid":5651181,"size":750399843,"categoryP":"video","categoryS":"movies","magnet":"?xt=urn:btih:87e5f0773a8b94e749e840f0d65f2ea3fc42e33d&amp;dn=Knight.And.Day.2010.CAM.MP4.FEEL-FREE&amp;tr=udp%3A%2F%2Ftracker.openbittorrent.com%3A80&amp;tr=udp%3A%2F%2Fopen.demonii.com%3A1337&amp;tr=udp%3A%2F%2Ftracker.coppersurfer.tk%3A6969&amp;tr=udp%3A%2F%2Fexodus.desync.com%3A6969","seeders":1,"leechers":0,"uploader":"hiest","files":9,"time":1277644824,"description":"Genre:Thriller / Comedie / Actiune\nLanguage:English\nIMDb:http://www.imdb.com/title/tt1013743/\nSource Video:Relizlab.Thanks\nSource Audio:PrisM/IMAGiNE.Thanks\nSAMPLES:YES\nEncoder: Tony2\n..........................................\nGeneral\nComplete name : Knight.And.Day.2010.CAM.MP4.FEEL-FREE\nFormat : MPEG-4\nFormat profile : Base Media\nCodec ID : isom\nFile size : 704 MiB\nDuration : 1h 44mn\nOverall bit rate : 946 Kbps\n...........................................\nVideo\nID : 1\nFormat : AVC\nFormat/Info : Advanced Video Codec\nFormat profile : &lt;a class=&quot;__cf_email__&quot; href=&quot;/cdn-cgi/l/email-protection&quot; data-cfemail=&quot;da97bbb3b49a96e8f4ea&quot;&gt;[email&amp;#160;protected]&lt;/a&gt;&lt;script cf-hash='f9e31' type=&quot;text/javascript&quot;&gt;\n/* &lt;![CDATA[ */!function(){try{var t=&quot;currentScript&quot;in document?document.currentScript:function(){for(var t=document.getElementsByTagName(&quot;script&quot;),e=t.length;e--;)if(t[e].getAttribute(&quot;cf-hash&quot;))return t[e]}();if(t&amp;&amp;t.previousSibling){var e,r,n,i,c=t.previousSibling,a=c.getAttribute(&quot;data-cfemail&quot;);if(a){for(e=&quot;&quot;,r=parseInt(a.substr(0,2),16),n=2;a.length-n;n+=2)i=parseInt(a.substr(n,2),16)^r,e+=String.fromCharCode(i);e=document.createTextNode(e),c.parentNode.replaceChild(e,c)}}}catch(u){}}();/* ]]&gt; */&lt;/script&gt;\nFormat settings, CABAC : Yes\nFormat settings, ReFrames : 1 frame\nCodec ID : avc1\nCodec ID/Info : Advanced Video Coding\nDuration : 1h 44mn\nBit rate mode : Variable\nBit rate : 775 Kbps\nWidth : 720 pixels\nHeight : 304 pixels\nDisplay aspect ratio : 2.35:1\nFrame rate mode : Constant\nFrame rate : 29.970 fps\nResolution : 24 bits\nColorimetry : 4:2:0\nScan type : Progressive\nBits/(Pixel*Frame) : 0.118\nStream size : 577 MiB (82%)\n............................................\nAudio\nID : 2\nFormat : AAC\nFormat/Info : Advanced Audio Codec\nFormat version : Version 4\nFormat profile : LC\nFormat settings, SBR : No\nCodec ID : 40\nDuration : 1h 44mn\nBit rate mode : Variable\nBit rate : 165 Kbps\nChannel(s) : 2 channels\nChannel positions : L R\nSampling rate : 48.0 KHz\nResolution : 16 bits\nStream size : 123 MiB (17%)\n............................................\nPlot: \nJune Havens (Diaz) finds her everyday life tangled with that of a secret agent (Cruise) who has realized\n...................................................\nScreenshots: &lt;a href=&quot;\nhttp://postimg.com/image/18000/17008.jpg&quot; rel=&quot;nofollow&quot; target=&quot;_NEW&quot;&gt;\nhttp://postimg.com/image/18000/17008.jpg&lt;/a&gt; &lt;a href=&quot;\nhttp://postimg.com/image/18000/17007.jpg&quot; rel=&quot;nofollow&quot; target=&quot;_NEW&quot;&gt;\nhttp://postimg.com/image/18000/17007.jpg&lt;/a&gt;\n\n........................................................","torrent":{"xt":"urn:btih:87e5f0773a8b94e749e840f0d65f2ea3fc42e33d","amp;dn":"Knight.And.Day.2010.CAM.MP4.FEEL-FREE","amp;tr":["udp%3A%2F%2Ftracker.openbittorrent.com%3A80","udp%3A%2F%2Fopen.demonii.com%3A1337","udp%3A%2F%2Ftracker.coppersurfer.tk%3A6969","udp%3A%2F%2Fexodus.desync.com%3A6969"],"infoHash":"87e5f0773a8b94e749e840f0d65f2ea3fc42e33d","infoHashBuffer":{"type":"Buffer","data":[135,229,240,119,58,139,148,231,73,232,64,240,214,95,46,163,252,66,227,61]},"announce":[],"urlList":[]}}